# Blender 4.3.2
# www.blender.org
mtllib rock.mtl
o Cube
v -0.279513 -0.210284 0.210284
v -0.432669 0.063844 0.170379
v -0.065204 -0.210284 -0.210284
v -0.283923 0.111171 -0.270567
v 0.412979 -0.210284 0.210284
v 0.210284 0.210284 0.210284
v 0.210284 -0.210284 -0.352328
v 0.252942 0.047680 -0.278481
v -0.274630 -0.203376 0.204951
v -0.423759 0.060886 0.166935
v -0.061862 -0.202702 -0.204685
v -0.277940 0.106933 -0.263767
v 0.405579 -0.205606 0.205451
v 0.206246 0.202863 0.204932
v 0.206396 -0.205191 -0.344650
v 0.247858 0.041897 -0.272100
vn -0.7661 -0.5376 -0.3524
vn -0.1839 -0.0329 -0.9824
vn 0.9523 0.2445 -0.1828
vn -0.0342 0.0398 0.9986
vn -0.0000 -1.0000 -0.0000
vn -0.0658 0.9885 -0.1361
vn 0.7605 0.5439 0.3547
vn 0.1863 0.0347 0.9819
vn -0.9506 -0.2492 0.1848
vn 0.0336 -0.0398 -0.9986
vn 0.0052 1.0000 0.0012
vn 0.0623 -0.9885 0.1380
vt 0.375000 0.000000
vt 0.625000 0.000000
vt 0.625000 0.250000
vt 0.375000 0.250000
vt 0.625000 0.500000
vt 0.375000 0.500000
vt 0.625000 0.750000
vt 0.375000 0.750000
vt 0.625000 1.000000
vt 0.375000 1.000000
vt 0.125000 0.500000
vt 0.125000 0.750000
vt 0.875000 0.500000
vt 0.875000 0.750000
s 0
usemtl Material
f 1/1/1 2/2/1 4/3/1 3/4/1
f 3/4/2 4/3/2 8/5/2 7/6/2
f 7/6/3 8/5/3 6/7/3 5/8/3
f 5/8/4 6/7/4 2/9/4 1/10/4
f 3/11/5 7/6/5 5/8/5 1/12/5
f 8/5/6 4/13/6 2/14/6 6/7/6
f 9/1/7 11/4/7 12/3/7 10/2/7
f 11/4/8 15/6/8 16/5/8 12/3/8
f 15/6/9 13/8/9 14/7/9 16/5/9
f 13/8/10 9/10/10 10/9/10 14/7/10
f 11/11/11 9/12/11 13/8/11 15/6/11
f 16/5/12 14/7/12 10/14/12 12/13/12
